<mxfile host="app.diagrams.net" agent="Mozilla/5.0 (Windows NT 10.0; Win64; x64; rv:135.0) Gecko/20100101 Firefox/135.0" version="26.0.16">
  <diagram id="6a731a19-8d31-9384-78a2-239565b7b9f0" name="Page-1">
    <mxGraphModel dx="2308" dy="503" grid="1" gridSize="10" guides="1" tooltips="1" connect="1" arrows="1" fold="1" page="1" pageScale="1" pageWidth="1169" pageHeight="827" background="none" math="0" shadow="0">
      <root>
        <mxCell id="0" />
        <mxCell id="1" parent="0" />
        <mxCell id="2" value="start" style="shape=mxgraph.flowchart.terminator;strokeWidth=2;gradientColor=none;gradientDirection=north;fontStyle=0;html=1;" parent="1" vertex="1">
          <mxGeometry x="260" y="60" width="120" height="30" as="geometry" />
        </mxCell>
        <mxCell id="5" value="Guess a letter" style="shape=mxgraph.flowchart.data;strokeWidth=2;gradientColor=none;gradientDirection=north;fontStyle=0;html=1;" parent="1" vertex="1">
          <mxGeometry x="240.5" y="250" width="159" height="80" as="geometry" />
        </mxCell>
        <mxCell id="6" value="&lt;div&gt;Remove letter from alphabet soup&lt;/div&gt;&lt;div&gt;&lt;br&gt;&lt;/div&gt;" style="shape=mxgraph.flowchart.decision;strokeWidth=2;gradientColor=none;gradientDirection=north;fontStyle=0;html=1;whiteSpace=wrap;" parent="1" vertex="1">
          <mxGeometry x="265.5" y="473" width="109" height="77" as="geometry" />
        </mxCell>
        <mxCell id="8" style="fontStyle=1;strokeColor=#003366;strokeWidth=1;html=1;exitX=0.5;exitY=1;exitDx=0;exitDy=0;exitPerimeter=0;" parent="1" source="2" target="5" edge="1">
          <mxGeometry relative="1" as="geometry">
            <mxPoint x="320" y="210" as="sourcePoint" />
          </mxGeometry>
        </mxCell>
        <mxCell id="9" style="entryX=0.5;entryY=0;entryPerimeter=0;fontStyle=1;strokeColor=#003366;strokeWidth=1;html=1;" parent="1" source="5" target="6" edge="1">
          <mxGeometry relative="1" as="geometry" />
        </mxCell>
        <mxCell id="12" value="" style="edgeStyle=elbowEdgeStyle;elbow=horizontal;fontColor=#001933;fontStyle=1;strokeColor=#003366;strokeWidth=1;html=1;entryX=0.5;entryY=0.09;entryDx=0;entryDy=0;entryPerimeter=0;" parent="1" source="6" target="51" edge="1">
          <mxGeometry width="100" height="100" as="geometry">
            <mxPoint y="100" as="sourcePoint" />
            <mxPoint x="320" y="580" as="targetPoint" />
          </mxGeometry>
        </mxCell>
        <mxCell id="14" value="no" style="text;fontStyle=0;html=1;strokeColor=none;gradientColor=none;fillColor=none;strokeWidth=2;align=center;" parent="1" vertex="1">
          <mxGeometry x="320" y="447" width="40" height="26" as="geometry" />
        </mxCell>
        <mxCell id="15" value="&lt;div align=&quot;center&quot;&gt;Place letter at the correct position. If more than one letter, place at all correct positions.&lt;/div&gt;&lt;div align=&quot;center&quot;&gt;&lt;br&gt;&lt;/div&gt;" style="shape=mxgraph.flowchart.document;strokeWidth=2;gradientColor=none;gradientDirection=north;fontStyle=0;html=1;align=center;whiteSpace=wrap;" parent="1" vertex="1">
          <mxGeometry x="520" y="609.5" width="140" height="70" as="geometry" />
        </mxCell>
        <mxCell id="18" value="&lt;div&gt;Execute hangman by 1&lt;/div&gt;&lt;div&gt;&lt;br&gt;&lt;/div&gt;" style="shape=mxgraph.flowchart.predefined_process;strokeWidth=2;gradientColor=none;gradientDirection=north;fontStyle=0;html=1;" parent="1" vertex="1">
          <mxGeometry x="-20" y="720" width="190" height="90" as="geometry" />
        </mxCell>
        <mxCell id="20" value="&lt;div&gt;Increase good letter count by the number of the correct letters in the word&lt;/div&gt;&lt;div&gt;&lt;br&gt;&lt;/div&gt;" style="shape=mxgraph.flowchart.manual_input;strokeWidth=2;gradientColor=none;gradientDirection=north;fontStyle=0;html=1;whiteSpace=wrap;" parent="1" vertex="1">
          <mxGeometry x="502" y="740" width="158" height="80" as="geometry" />
        </mxCell>
        <mxCell id="23" value="" style="edgeStyle=elbowEdgeStyle;elbow=horizontal;exitX=0.5;exitY=1;exitPerimeter=0;fontStyle=1;strokeColor=#003366;strokeWidth=1;html=1;entryX=1;entryY=0.5;entryDx=0;entryDy=0;entryPerimeter=0;" parent="1" source="20" target="2" edge="1">
          <mxGeometry width="100" height="100" as="geometry">
            <mxPoint y="100" as="sourcePoint" />
            <mxPoint x="399.5" y="965" as="targetPoint" />
          </mxGeometry>
        </mxCell>
        <mxCell id="24" value="&lt;div&gt;If hangman =7&lt;/div&gt;&lt;div&gt;you die&lt;/div&gt;&lt;div&gt;&lt;br&gt;&lt;/div&gt;" style="shape=mxgraph.flowchart.decision;strokeWidth=2;gradientColor=none;gradientDirection=north;fontStyle=0;html=1;" parent="1" vertex="1">
          <mxGeometry x="260" y="827" width="119" height="78.5" as="geometry" />
        </mxCell>
        <mxCell id="51" value="Is guess correct?" style="shape=mxgraph.flowchart.paper_tape;strokeWidth=2;gradientColor=none;gradientDirection=north;fontStyle=0;html=1;" parent="1" vertex="1">
          <mxGeometry x="245" y="604" width="150" height="81" as="geometry" />
        </mxCell>
        <mxCell id="VHrR8jm1KsDlT0phaoVf-55" value="&lt;div&gt;How many words are the letters?&lt;/div&gt;&lt;div&gt;How many wrong answers needed to hang the person?&lt;/div&gt;&lt;div&gt;Does the number of letters match the number of letters&lt;/div&gt;&lt;div&gt;?&lt;/div&gt;&lt;div&gt;HANGMAN&amp;nbsp; = 7 letter game&lt;/div&gt;" style="text;html=1;align=center;verticalAlign=middle;whiteSpace=wrap;rounded=0;" vertex="1" parent="1">
          <mxGeometry x="720" y="50" width="330" height="70" as="geometry" />
        </mxCell>
        <mxCell id="VHrR8jm1KsDlT0phaoVf-56" value="Increase hangman by 1" style="shape=mxgraph.flowchart.paper_tape;strokeWidth=2;gradientColor=none;gradientDirection=north;fontStyle=0;html=1;" vertex="1" parent="1">
          <mxGeometry x="10" y="598.5" width="150" height="81" as="geometry" />
        </mxCell>
        <mxCell id="VHrR8jm1KsDlT0phaoVf-60" value="Check alphabet soup if letter has already been&amp;nbsp; guessed" style="shape=mxgraph.flowchart.decision;strokeWidth=2;gradientColor=none;gradientDirection=north;fontStyle=0;html=1;whiteSpace=wrap;" vertex="1" parent="1">
          <mxGeometry x="265.5" y="348" width="109" height="77" as="geometry" />
        </mxCell>
        <mxCell id="VHrR8jm1KsDlT0phaoVf-67" value="YES" style="text;html=1;align=center;verticalAlign=middle;whiteSpace=wrap;rounded=0;" vertex="1" parent="1">
          <mxGeometry x="840" y="290" width="60" height="30" as="geometry" />
        </mxCell>
        <mxCell id="VHrR8jm1KsDlT0phaoVf-68" value="Yes" style="endArrow=classic;html=1;rounded=0;" edge="1" parent="1">
          <mxGeometry width="50" height="50" relative="1" as="geometry">
            <mxPoint x="380.5" y="398.5" as="sourcePoint" />
            <mxPoint x="720.5" y="398.5" as="targetPoint" />
          </mxGeometry>
        </mxCell>
        <mxCell id="VHrR8jm1KsDlT0phaoVf-71" value="&lt;div&gt;Print: Letter already been guessed, Take a different guess&lt;/div&gt;&lt;div&gt;&lt;br&gt;&lt;/div&gt;" style="shape=mxgraph.flowchart.data;strokeWidth=2;gradientColor=none;gradientDirection=north;fontStyle=0;html=1;whiteSpace=wrap;" vertex="1" parent="1">
          <mxGeometry x="700" y="367" width="159" height="80" as="geometry" />
        </mxCell>
        <mxCell id="VHrR8jm1KsDlT0phaoVf-74" value="" style="curved=1;endArrow=classic;html=1;rounded=0;exitX=0.565;exitY=0.042;exitDx=0;exitDy=0;exitPerimeter=0;entryX=0.592;entryY=-0.015;entryDx=0;entryDy=0;entryPerimeter=0;" edge="1" parent="1" source="VHrR8jm1KsDlT0phaoVf-71" target="5">
          <mxGeometry width="50" height="50" relative="1" as="geometry">
            <mxPoint x="790" y="350" as="sourcePoint" />
            <mxPoint x="840" y="300" as="targetPoint" />
            <Array as="points">
              <mxPoint x="840" y="350" />
              <mxPoint x="790" y="300" />
              <mxPoint x="630" y="210" />
            </Array>
          </mxGeometry>
        </mxCell>
        <mxCell id="VHrR8jm1KsDlT0phaoVf-77" value="" style="endArrow=classic;html=1;rounded=0;" edge="1" parent="1">
          <mxGeometry width="50" height="50" relative="1" as="geometry">
            <mxPoint x="400" y="640" as="sourcePoint" />
            <mxPoint x="520" y="640" as="targetPoint" />
          </mxGeometry>
        </mxCell>
        <mxCell id="VHrR8jm1KsDlT0phaoVf-78" value="YES" style="edgeLabel;html=1;align=center;verticalAlign=middle;resizable=0;points=[];" vertex="1" connectable="0" parent="VHrR8jm1KsDlT0phaoVf-77">
          <mxGeometry x="-0.1367" y="3" relative="1" as="geometry">
            <mxPoint as="offset" />
          </mxGeometry>
        </mxCell>
        <mxCell id="VHrR8jm1KsDlT0phaoVf-79" value="" style="endArrow=classic;html=1;rounded=0;entryX=1;entryY=0.5;entryDx=0;entryDy=0;entryPerimeter=0;" edge="1" parent="1" target="VHrR8jm1KsDlT0phaoVf-56">
          <mxGeometry width="50" height="50" relative="1" as="geometry">
            <mxPoint x="240.5" y="638.5" as="sourcePoint" />
            <mxPoint x="125.5" y="638.5" as="targetPoint" />
          </mxGeometry>
        </mxCell>
        <mxCell id="VHrR8jm1KsDlT0phaoVf-80" value="NO" style="edgeLabel;html=1;align=center;verticalAlign=middle;resizable=0;points=[];" vertex="1" connectable="0" parent="VHrR8jm1KsDlT0phaoVf-79">
          <mxGeometry x="-0.0748" relative="1" as="geometry">
            <mxPoint as="offset" />
          </mxGeometry>
        </mxCell>
        <mxCell id="VHrR8jm1KsDlT0phaoVf-81" value="" style="endArrow=classic;html=1;rounded=0;exitX=0.5;exitY=0.9;exitDx=0;exitDy=0;exitPerimeter=0;entryX=0.557;entryY=0.25;entryDx=0;entryDy=0;entryPerimeter=0;" edge="1" parent="1" source="15" target="20">
          <mxGeometry width="50" height="50" relative="1" as="geometry">
            <mxPoint x="560" y="760" as="sourcePoint" />
            <mxPoint x="610" y="710" as="targetPoint" />
          </mxGeometry>
        </mxCell>
        <mxCell id="VHrR8jm1KsDlT0phaoVf-82" value="&lt;div&gt;Keep count of the number of guesses/Tries (7)&lt;/div&gt;&lt;div&gt;Keep track of the number of correct guesses&lt;/div&gt;&lt;div&gt;Keep track of the number of wrong guesses&lt;/div&gt;&lt;div&gt;&lt;br&gt;&lt;/div&gt;" style="text;html=1;align=center;verticalAlign=middle;whiteSpace=wrap;rounded=0;" vertex="1" parent="1">
          <mxGeometry x="870" y="590" width="180" height="230" as="geometry" />
        </mxCell>
        <mxCell id="VHrR8jm1KsDlT0phaoVf-85" value="" style="endArrow=classic;html=1;rounded=0;entryX=0.54;entryY=0.04;entryDx=0;entryDy=0;entryPerimeter=0;exitX=0.5;exitY=0.91;exitDx=0;exitDy=0;exitPerimeter=0;" edge="1" parent="1" source="VHrR8jm1KsDlT0phaoVf-56" target="18">
          <mxGeometry width="50" height="50" relative="1" as="geometry">
            <mxPoint x="80" y="680" as="sourcePoint" />
            <mxPoint x="130" y="630" as="targetPoint" />
          </mxGeometry>
        </mxCell>
        <mxCell id="VHrR8jm1KsDlT0phaoVf-86" value="" style="edgeStyle=elbowEdgeStyle;elbow=horizontal;exitX=1;exitY=0.5;exitPerimeter=0;fontStyle=1;strokeColor=#003366;strokeWidth=1;html=1;entryX=0;entryY=0.5;entryDx=0;entryDy=0;entryPerimeter=0;exitDx=0;exitDy=0;" edge="1" parent="1" source="18" target="2">
          <mxGeometry width="100" height="100" as="geometry">
            <mxPoint x="321" y="820" as="sourcePoint" />
            <mxPoint x="120" y="75" as="targetPoint" />
            <Array as="points">
              <mxPoint x="240" y="670" />
              <mxPoint x="120" y="420" />
            </Array>
          </mxGeometry>
        </mxCell>
        <mxCell id="VHrR8jm1KsDlT0phaoVf-87" value="&lt;div&gt;If good letter counter =7,&lt;/div&gt;&lt;div&gt;you win&lt;/div&gt;" style="shape=mxgraph.flowchart.decision;strokeWidth=2;gradientColor=none;gradientDirection=north;fontStyle=0;html=1;" vertex="1" parent="1">
          <mxGeometry x="631" y="840" width="119" height="78.5" as="geometry" />
        </mxCell>
        <mxCell id="VHrR8jm1KsDlT0phaoVf-88" value="&lt;div&gt;Finish&lt;/div&gt;&lt;div&gt;&lt;br&gt;&lt;/div&gt;" style="shape=mxgraph.flowchart.terminator;strokeWidth=2;gradientColor=none;gradientDirection=north;fontStyle=0;html=1;" vertex="1" parent="1">
          <mxGeometry x="380" y="970" width="120" height="30" as="geometry" />
        </mxCell>
        <mxCell id="VHrR8jm1KsDlT0phaoVf-89" value="" style="edgeStyle=elbowEdgeStyle;elbow=vertical;exitX=1;exitY=0.5;exitPerimeter=0;entryX=1;entryY=0.5;entryPerimeter=0;fontStyle=1;strokeColor=#003366;strokeWidth=1;html=1;entryDx=0;entryDy=0;" edge="1" parent="1" target="VHrR8jm1KsDlT0phaoVf-88">
          <mxGeometry width="100" height="100" as="geometry">
            <mxPoint x="629" y="878.5" as="sourcePoint" />
            <mxPoint x="814" y="918.5" as="targetPoint" />
            <Array as="points">
              <mxPoint x="729" y="878.5" />
            </Array>
          </mxGeometry>
        </mxCell>
        <mxCell id="VHrR8jm1KsDlT0phaoVf-90" value="" style="edgeStyle=elbowEdgeStyle;elbow=vertical;exitX=1;exitY=0.5;exitPerimeter=0;entryX=0;entryY=0.5;entryPerimeter=0;fontStyle=1;strokeColor=#003366;strokeWidth=1;html=1;entryDx=0;entryDy=0;" edge="1" parent="1" target="VHrR8jm1KsDlT0phaoVf-88">
          <mxGeometry width="100" height="100" as="geometry">
            <mxPoint x="321" y="863.5" as="sourcePoint" />
            <mxPoint x="192" y="970" as="targetPoint" />
            <Array as="points">
              <mxPoint x="190" y="980" />
            </Array>
          </mxGeometry>
        </mxCell>
      </root>
    </mxGraphModel>
  </diagram>
</mxfile>
